#!OML:ASF H:\ManfredETheater\Project 1\Capture day 1\Session 1\subject.ASF
:FULLY-SPECIFIED
:DEGREES
49
root 14.2223 14.1755 22.9022 -178.012 -58.2082 196.375
lowerback 38.5937 4.1658 0.538519
upperback 12.1044 2.78878 -1.74813
thorax -5.30664 0.465384 -3.0598
lowerneck -2.29445 -10.2485 -13.6617
upperneck 2.21798 -13.5599 10.5581
head 2.68277 -6.72256 4.76004
rclavicle -5.00937e-014 1.13705e-013
rhumerus -9.93202 0.75237 -70.9538
rradius 51.0727
rwrist -15.8563
rhand -21.1544 -9.23135
rfingers 7.12502
rthumb 5.22523 -39.1469
lclavicle -5.00937e-014 1.13705e-013
lhumerus -45.216 2.63875 74.9859
lradius 122.065
lwrist 0.330576
lhand -28.5429 -1.13846
lfingers 7.12502
lthumb -1.91029 28.8327
rfemur -40.9587 -28.572 35.4208
rtibia 103.993
rfoot -11.4489 -20.1152
rtoes -22.6184
lfemur -78.1289 3.40743 -32.2384
ltibia 64.4164
lfoot 0.592061 -6.78064
ltoes 35.2711
50
root 14.1617 14.0445 22.521 -177.526 -59.5859 195.491
lowerback 40.6993 4.0832 0.113541
upperback 12.2185 2.38691 -1.59764
thorax -5.87638 0.212644 -2.56668
lowerneck -2.08708 -10.4389 -13.7334
upperneck 1.34972 -13.8155 11.0829
head 2.46599 -6.85357 4.93943
rclavicle 3.97569e-014 -1.59028e-015
rhumerus -9.74465 -0.865924 -70.9906
rradius 49.3949
rwrist -15.0316
rhand -21.1977 -9.19156
rfingers 7.12502
rthumb 5.18342 -39.1082
lclavicle 3.97569e-014 -1.59028e-015
lhumerus -43.5992 0.559867 77.4123
lradius 122.909
lwrist -2.53409
lhand -28.4501 -1.40948
lfingers 7.12502
lthumb -1.82063 28.5625
rfemur -44.9304 -29.261 33.6727
rtibia 105.625
rfoot -13.0982 -21.599
rtoes -20.3469
lfemur -79.3555 2.82627 -32.3017
ltibia 67.8869
lfoot -0.77405 -5.48732
ltoes 31.6925
51
root 14.1014 13.9034 22.128 -176.052 -61.3507 193.457
lowerback 42.7522 4.01258 -0.927212
upperback 12.4905 1.74207 -1.19982
thorax -6.23337 -0.17535 -1.38322
lowerneck -2.38027 -10.6032 -14.3716
upperneck 0.605976 -13.9725 11.7445
head 2.40653 -6.92881 5.21929
rclavicle -1.98785e-014 -1.63003e-014
rhumerus -9.04015 -1.54559 -70.5393
rradius 47.7859
rwrist -14.9244
rhand -21.7326 -9.25769
rfingers 7.12502
rthumb 4.66702 -39.1863
lclavicle -1.98785e-014 -1.63003e-014
lhumerus -41.7681 -1.01625 79.7393
lradius 123.683
lwrist -5.20324
lhand -28.0532 -1.80995
lfingers 7.12502
lthumb -1.43733 28.165
rfemur -48.7977 -30.4961 30.957
rtibia 106.808
rfoot -14.931 -22.1937
rtoes -18.5902
lfemur -80.2991 2.00032 -32.9397
ltibia 71.3054
lfoot -2.60557 -4.97873
ltoes 31.9534
52
root 14.0445 13.762 21.739 -175.439 -64.0676 192.039
lowerback 45.791 3.54484 0.210134
upperback 12.5598 1.44415 -1.33979
thorax -6.93463 -0.331299 -2.01682
lowerneck -1.93016 -11.3819 -12.3334
upperneck -0.736914 -15.0527 12.0972
head 1.95461 -7.48823 5.0051
rclavicle -6.36111e-014 -2.98177e-015
rhumerus -9.84651 -5.1861 -70.6232
rradius 46.6749
rwrist -14.1254
rhand -22.1268 -9.00251
rfingers 7.12502
rthumb 4.28635 -38.9391
lclavicle -6.36111e-014 -2.98177e-015
lhumerus -39.354 -5.64341 80.9915
lradius 124.338
lwrist -6.91629
lhand -27.5619 -1.98351
lfingers 7.12502
lthumb -0.962755 27.9941
rfemur -51.8849 -32.5661 28.1444
rtibia 107.243
rfoot -16.3007 -22.6734
rtoes -18.0432
lfemur -80.5366 0.495881 -32.8806
ltibia 74.5246
lfoot -4.57128 -5.75522
ltoes 30.8501
53
root 13.9894 13.6265 21.3311 -175.454 -66.0627 191.625
lowerback 49.1455 2.97463 -0.261383
upperback 11.624 0.494614 -0.555583
thorax -7.4458 -0.849663 -0.536201
lowerneck -1.8206 -11.1715 -13.8132
upperneck -1.95854 -14.7168 12.9792
head 1.71714 -7.34405 5.54852
rclavicle -8.74653e-015 -1.41137e-014
rhumerus -8.87146 -4.53236 -70.1076
rradius 45.4153
rwrist -13.8314
rhand -22.016 -8.8191
rfingers 7.12502
rthumb 4.39334 -38.7535
lclavicle -8.74653e-015 -1.41137e-014
lhumerus -37.9469 -6.27162 82.6568
lradius 125.371
lwrist -8.47205
lhand -27.1961 -2.58952
lfingers 7.12502
lthumb -0.609502 27.3894
rfemur -54.5995 -33.2702 25.8404
rtibia 106.899
rfoot -17.3108 -23.3734
rtoes -16.9726
lfemur -81.0567 0.173966 -32.4089
ltibia 77.4924
lfoot -6.57313 -7.0737
ltoes 30.8241
54
root 13.939 13.51 20.9062 -177.002 -67.5961 192.973
lowerback 51.4283 2.90098 -0.899502
upperback 11.434 0.124029 0.755584
thorax -7.96862 -1.13042 1.34137
lowerneck -1.2312 -10.8759 -15.3986
upperneck -3.34119 -14.3209 13.5735
head 1.32427 -7.17889 6.06744
rclavicle -1.90833e-014 6.04305e-014
rhumerus -8.07113 -3.55777 -69.2578
rradius 44.4222
rwrist -13.6108
rhand -21.4829 -8.72274
rfingers 7.12502
rthumb 4.90812 -38.6459
lclavicle -1.90833e-014 6.04305e-014
lhumerus -36.7499 -6.77533 84.4351
lradius 126.473
lwrist -9.51526
lhand -27.5433 -3.24458
lfingers 7.12502
lthumb -0.94482 26.7331
rfemur -56.9836 -33.1196 24.2188
rtibia 105.742
rfoot -18.4914 -24.2498
rtoes -15.6182
lfemur -81.7232 0.715264 -31.3375
ltibia 80.2105
lfoot -8.37536 -8.64525
ltoes 31.4158
55
root 13.8721 13.3875 20.4885 -177.807 -68.9427 194.095
lowerback 52.6377 2.2084 -0.220401
upperback 11.5817 -0.457101 0.655169
thorax -7.92697 -1.40931 1.1704
lowerneck -0.703963 -10.8158 -15.142
upperneck -4.60592 -14.2427 14.3776
head 0.910534 -7.18381 6.35058
rclavicle -3.10104e-014 -1.23246e-014
rhumerus -7.62811 -4.45466 -70.0086
rradius 43.6281
rwrist -12.9012
rhand -21.2768 -8.61361
rfingers 7.12502
rthumb 5.1071 -38.5321
lclavicle -3.10104e-014 -1.23246e-014
lhumerus -34.8447 -8.78849 84.017
lradius 127.51
lwrist -9.53686
lhand -27.5404 -4.04213
lfingers 7.12502
lthumb -0.942045 25.9355
rfemur -59.6772 -32.935 22.4736
rtibia 104.081
rfoot -19.3731 -25.0397
rtoes -14.6246
lfemur -82.8743 1.47483 -30.6819
ltibia 82.7035
lfoot -10.1766 -9.81397
ltoes 31.2802
56
root 13.7944 13.2667 20.0707 -178.231 -70.0181 195.356
lowerback 53.1297 1.58963 0.289856
upperback 11.7478 -0.965666 0.55281
thorax -7.78502 -1.63539 1.0406
lowerneck -0.344601 -10.7186 -14.9543
upperneck -5.5779 -14.0983 15.0246
head 0.592214 -7.15291 6.584
rclavicle -1.15295e-013 -1.70955e-014
rhumerus -7.18023 -5.00557 -70.7014
rradius 42.9728
rwrist -12.2714
rhand -21.4876 -8.50855
rfingers 7.12502
rthumb 4.90354 -38.4318
lclavicle -1.15295e-013 -1.70955e-014
lhumerus -33.0497 -10.5529 83.2183
lradius 128.527
lwrist -9.62736
lhand -27.8845 -4.65618
lfingers 7.12502
lthumb -1.2744 25.3198
rfemur -62.6295 -32.4678 20.8428
rtibia 101.747
rfoot -19.7046 -25.8947
rtoes -13.6931
lfemur -84.5693 2.50063 -30.0825
ltibia 85.0006
lfoot -11.7509 -10.9559
ltoes 31.6838
57
root 13.7126 13.1884 19.6625 -178.436 -71.0499 196.299
lowerback 53.7068 1.42453 0.304831
upperback 11.9379 -1.14226 1.00847
thorax -7.61744 -1.75719 1.60476
lowerneck -0.119813 -10.708 -15.0355
upperneck -6.51571 -14.0659 15.3285
head 0.310497 -7.17058 6.73817
rclavicle -3.10104e-014 -1.09332e-014
rhumerus -6.61616 -4.98785 -70.601
rradius 42.4571
rwrist -11.9459
rhand -21.7185 -8.37553
rfingers 7.12502
rthumb 4.6806 -38.3038
lclavicle -3.10104e-014 -1.09332e-014
lhumerus -31.0543 -12.0305 82.9424
lradius 129.414
lwrist -9.37995
lhand -27.9676 -4.82487
lfingers 7.12502
lthumb -1.3546 25.1506
rfemur -64.7658 -31.8514 18.7723
rtibia 98.5748
rfoot -19.54 -26.9076
rtoes -12.838
lfemur -85.8305 3.56268 -29.4417
ltibia 86.9442
lfoot -13.2999 -12.4761
ltoes 32.0951
58
root 13.6203 13.1496 19.2508 -179.265 -71.8802 197.198
lowerback 55.1697 2.15242 0.623587
upperback 12.0926 -0.177301 1.65861
thorax -7.58546 -1.40347 1.7723
lowerneck 0.413132 -11.3421 -13.2867
upperneck -7.79679 -14.8912 15.0149
head -0.183847 -7.66391 6.41453
rclavicle 3.02153e-014 -5.48646e-014
rhumerus -7.02536 -6.51308 -69.716
rradius 42.4349
rwrist -12.4818
rhand -22.3576 -8.45196
rfingers 7.12502
rthumb 4.06343 -38.393
lclavicle 3.02153e-014 -5.48646e-014
lhumerus -28.1578 -15.3384 82.4211
lradius 129.911
lwrist -9.07619
lhand -28.4287 -5.015
lfingers 7.12502
lthumb -1.79993 24.9572
rfemur -65.2448 -31.3009 16.0993
rtibia 94.6301
rfoot -19.7174 -27.2663
rtoes -12.1543
lfemur -86.0756 5.07585 -28.6654
ltibia 88.6211
lfoot -15.2116 -14.0402
ltoes 31.0707
59
root 13.524 13.1397 18.8316 -181.247 -72.7665 198.276
lowerback 58.3474 2.38368 0.570203
upperback 11.7851 -0.012289 2.40101
thorax -8.14344 -1.45582 2.59504
lowerneck 0.754608 -11.3661 -13.6377
upperneck -8.53628 -14.9244 15.3379
head -0.393921 -7.71227 6.61311
rclavicle 7.15625e-015 4.55217e-014
rhumerus -6.47376 -8.81546 -69.845
rradius 41.8698
rwrist -10.6017
rhand -21.7071 -7.93252
rfingers 7.12502
rthumb 4.69156 -37.8606
lclavicle 7.15625e-015 4.55217e-014
lhumerus -26.1443 -16.3806 81.5654
lradius 130.469
lwrist -9.11829
lhand -29.8262 -4.84428
lfingers 7.12502
lthumb -3.14961 25.1122
rfemur -63.8219 -31.1132 12.9448
rtibia 90.0887
rfoot -19.3173 -27.4218
rtoes -13.6365
lfemur -84.9998 6.82805 -27.6465
ltibia 90.0489
lfoot -17.3297 -15.7122
ltoes 29.1624
60
root 13.4338 13.123 18.4143 -182.89 -73.6171 199.765
lowerback 60.3299 2.32849 0.791221
upperback 11.6124 0.0123624 2.79445
thorax -8.41739 -1.51552 2.96058
lowerneck 0.910683 -11.3669 -13.7102
upperneck -9.15726 -14.8982 15.7563
head -0.558655 -7.73389 6.78724
rclavicle 2.38542e-015 -2.51463e-014
rhumerus -6.58635 -8.75336 -69.8827
rradius 42.0305
rwrist -10.3135
rhand -22.5269 -7.97512
rfingers 7.12502
rthumb 3.9 -37.9192
lclavicle 2.38542e-015 -2.51463e-014
lhumerus -23.8562 -16.6945 79.6453
lradius 130.866
lwrist -9.21452
lhand -29.3651 -4.85549
lfingers 7.12502
lthumb -2.70427 25.1071
rfemur -63.0462 -30.559 10.2686
rtibia 85.4576
rfoot -18.9586 -27.3753
rtoes -14.2077
lfemur -84.8087 8.51781 -26.5423
ltibia 91.3319
lfoot -18.9622 -17.7058
ltoes 27.8928
61
root 13.3511 13.0701 18.0027 -183.704 -74.6061 201.349
lowerback 60.874 1.71637 1.37285
upperback 11.5996 -0.33093 2.75968
thorax -8.42204 -1.65509 2.82669
lowerneck 1.0538 -11.3206 -13.8017
upperneck -9.67496 -14.7934 16.4143
head -0.677773 -7.72156 7.03583
rclavicle 2.14687e-014 3.8763e-014
rhumerus -6.711 -8.44043 -70.3166
rradius 42.2517
rwrist -10.6378
rhand -23.2285 -7.89646
rfingers 7.12502
rthumb 3.22246 -37.8519
lclavicle 2.14687e-014 3.8763e-014
lhumerus -21.5453 -16.6166 77.0311
lradius 131.086
lwrist -8.93548
lhand -29.7211 -4.71055
lfingers 7.12502
lthumb -3.04811 25.2474
rfemur -63.377 -30.3174 7.90788
rtibia 81.12
rfoot -16.1121 -26.8671
rtoes -20.2917
lfemur -85.8944 9.86338 -25.6264
ltibia 92.5607
lfoot -20.0758 -19.7033
ltoes 26.6601
